<svg width="327" height="60" viewBox="0 0 327 60" fill="none" xmlns="http://www.w3.org/2000/svg">
<g clip-path="url(#clip0_91_7396)">
<g clip-path="url(#clip1_91_7396)">
<mask id="path-1-inside-1_91_7396" fill="white">
<path fill-rule="evenodd" clip-rule="evenodd" d="M141.273 43.6365C146.296 48.9287 152.322 54.359 159.619 54.359H358.615C360.485 54.359 362 55.8743 362 57.7436C362 59.6129 360.485 61.1282 358.615 61.1282H163.594C154.915 61.1282 148.162 68.7288 142.819 75.5691C138.335 81.3095 131.349 85 123.5 85C115.651 85 108.665 81.3095 104.181 75.5691C98.8379 68.7288 92.0853 61.1282 83.4055 61.1282H-30.6154C-32.4847 61.1282 -34 59.6129 -34 57.7436C-34 55.8743 -32.4847 54.359 -30.6154 54.359H87.3813C94.6778 54.359 100.704 48.9287 105.727 43.6365C110.191 38.933 116.503 36 123.5 36C130.497 36 136.809 38.933 141.273 43.6365Z"/>
</mask>
<path d="M105.727 43.6365L104.909 42.8598L105.727 43.6365ZM104.181 75.5691L103.292 76.2636L104.181 75.5691ZM141.273 43.6365L140.455 44.4131L141.273 43.6365ZM159.619 55.4872H358.615V53.2308H159.619V55.4872ZM358.615 60H163.594V62.2564H358.615V60ZM141.93 74.8746C137.651 80.353 130.987 83.8718 123.5 83.8718V86.1282C131.711 86.1282 139.02 82.2659 143.708 76.2636L141.93 74.8746ZM123.5 83.8718C116.013 83.8718 109.349 80.353 105.07 74.8746L103.292 76.2636C107.98 82.2659 115.289 86.1282 123.5 86.1282V83.8718ZM83.4055 60H-30.6154V62.2564H83.4055V60ZM-30.6154 55.4872H87.3813V53.2308H-30.6154V55.4872ZM106.545 44.4132C110.806 39.9247 116.825 37.1282 123.5 37.1282V34.8718C116.181 34.8718 109.577 37.9412 104.909 42.8598L106.545 44.4132ZM123.5 37.1282C130.175 37.1282 136.194 39.9247 140.455 44.4131L142.091 42.8598C137.423 37.9412 130.819 34.8718 123.5 34.8718V37.1282ZM87.3813 55.4872C95.2184 55.4872 101.553 49.6733 106.545 44.4132L104.909 42.8598C99.8553 48.1841 94.1373 53.2308 87.3813 53.2308V55.4872ZM-32.8718 57.7436C-32.8718 56.4974 -31.8616 55.4872 -30.6154 55.4872V53.2308C-33.1077 53.2308 -35.1282 55.2512 -35.1282 57.7436H-32.8718ZM-30.6154 60C-31.8616 60 -32.8718 58.9898 -32.8718 57.7436H-35.1282C-35.1282 60.236 -33.1077 62.2564 -30.6154 62.2564V60ZM163.594 60C158.907 60 154.807 62.0553 151.25 64.9028C147.7 67.7455 144.609 71.445 141.93 74.8746L143.708 76.2636C146.372 72.8528 149.329 69.3319 152.661 66.6642C155.986 64.0014 159.602 62.2564 163.594 62.2564V60ZM360.872 57.7436C360.872 58.9898 359.862 60 358.615 60V62.2564C361.108 62.2564 363.128 60.236 363.128 57.7436H360.872ZM358.615 55.4872C359.862 55.4872 360.872 56.4974 360.872 57.7436H363.128C363.128 55.2512 361.108 53.2308 358.615 53.2308V55.4872ZM105.07 74.8746C102.391 71.445 99.2999 67.7455 95.7496 64.9028C92.1933 62.0553 88.0926 60 83.4055 60V62.2564C87.3982 62.2564 91.0136 64.0014 94.3393 66.6642C97.6711 69.3319 100.628 72.8528 103.292 76.2636L105.07 74.8746ZM159.619 53.2308C152.863 53.2308 147.145 48.1841 142.091 42.8598L140.455 44.4131C145.447 49.6733 151.782 55.4872 159.619 55.4872V53.2308Z" fill="url(#paint0_radial_91_7396)" mask="url(#path-1-inside-1_91_7396)"/>
<circle cx="123.5" cy="51.5" r="5.5" fill="#606873"/>
</g>
<path d="M313 47V42L312 41V37C312 36.7348 312.105 36.4804 312.293 36.2929C312.48 36.1054 312.735 36 313 36H317C317.265 36 317.52 36.1054 317.707 36.2929C317.895 36.4804 318 36.7348 318 37V41L317 42V47M317 30C317 31.1046 316.105 32 315 32C313.895 32 313 31.1046 313 30C313 28.8954 313.895 28 315 28C316.105 28 317 28.8954 317 30Z" stroke="#A0AEC0" stroke-width="1.5" stroke-linecap="round" stroke-linejoin="round"/>
<path d="M10.6667 47V43.5789L10 42.8947V40.1579C10 39.9764 10.0702 39.8024 10.1953 39.6741C10.3203 39.5458 10.4899 39.4737 10.6667 39.4737H13.3333C13.5101 39.4737 13.6797 39.5458 13.8047 39.6741C13.9298 39.8024 14 39.9764 14 40.1579V42.8947L13.3333 43.5789V47M13.3333 35.3684C13.3333 36.1242 12.7364 36.7368 12 36.7368C11.2636 36.7368 10.6667 36.1242 10.6667 35.3684C10.6667 34.6127 11.2636 34 12 34C12.7364 34 13.3333 34.6127 13.3333 35.3684Z" stroke="#A0AEC0" stroke-width="1.5" stroke-linecap="round" stroke-linejoin="round"/>
<rect x="86" width="72" height="26" rx="8" fill="#606873"/>
<path d="M98.8863 20V9.68H96.5983V8.08H100.758V20H98.8863ZM103.536 20L108.624 9.68H102.896V8.08H110.592V9.68L105.584 20H103.536ZM115.667 20.192C115.037 20.192 114.445 20.08 113.891 19.856C113.336 19.6213 112.856 19.296 112.451 18.88C112.045 18.464 111.757 17.9627 111.587 17.376L113.171 16.768C113.373 17.3333 113.704 17.7653 114.163 18.064C114.621 18.3627 115.123 18.512 115.667 18.512C116.115 18.512 116.509 18.4107 116.851 18.208C117.192 18.0053 117.459 17.728 117.651 17.376C117.853 17.024 117.955 16.624 117.955 16.176C117.955 15.7173 117.853 15.3173 117.651 14.976C117.459 14.624 117.192 14.352 116.851 14.16C116.509 13.9573 116.115 13.856 115.667 13.856C115.219 13.856 114.808 13.9573 114.435 14.16C114.061 14.3627 113.789 14.6347 113.619 14.976L112.099 14.64L113.027 8.08H119.379V9.68H113.763L114.483 8.896L113.795 13.92L113.203 13.52C113.523 13.072 113.912 12.7467 114.371 12.544C114.829 12.3413 115.352 12.24 115.939 12.24C116.717 12.24 117.395 12.416 117.971 12.768C118.557 13.1093 119.011 13.5787 119.331 14.176C119.661 14.7627 119.827 15.4293 119.827 16.176C119.827 16.9333 119.645 17.616 119.283 18.224C118.92 18.832 118.424 19.312 117.795 19.664C117.176 20.016 116.467 20.192 115.667 20.192ZM128.691 20.192C127.827 20.192 127.059 19.9947 126.387 19.6C125.726 19.1947 125.198 18.6507 124.803 17.968C124.419 17.2853 124.227 16.512 124.227 15.648C124.227 14.7947 124.419 14.0267 124.803 13.344C125.187 12.6613 125.715 12.128 126.387 11.744C127.059 11.3493 127.827 11.152 128.691 11.152C129.278 11.152 129.827 11.2587 130.339 11.472C130.851 11.6747 131.294 11.9573 131.667 12.32C132.051 12.6827 132.334 13.104 132.515 13.584L130.931 14.32C130.75 13.872 130.457 13.5147 130.051 13.248C129.657 12.9707 129.203 12.832 128.691 12.832C128.201 12.832 127.758 12.9547 127.363 13.2C126.979 13.4347 126.675 13.7707 126.451 14.208C126.227 14.6347 126.115 15.12 126.115 15.664C126.115 16.208 126.227 16.6987 126.451 17.136C126.675 17.5627 126.979 17.8987 127.363 18.144C127.758 18.3893 128.201 18.512 128.691 18.512C129.214 18.512 129.667 18.3787 130.051 18.112C130.446 17.8347 130.739 17.4667 130.931 17.008L132.515 17.76C132.345 18.2187 132.067 18.6347 131.683 19.008C131.31 19.3707 130.867 19.6587 130.355 19.872C129.843 20.0853 129.289 20.192 128.691 20.192ZM134.283 20V11.344H136.011V13.216L135.787 12.928C135.968 12.3413 136.299 11.8987 136.779 11.6C137.259 11.3013 137.808 11.152 138.427 11.152C139.12 11.152 139.733 11.3387 140.267 11.712C140.811 12.0747 141.173 12.56 141.355 13.168L140.843 13.216C141.099 12.5227 141.488 12.0053 142.011 11.664C142.544 11.3227 143.152 11.152 143.835 11.152C144.432 11.152 144.971 11.2907 145.451 11.568C145.941 11.8453 146.331 12.2293 146.619 12.72C146.907 13.2107 147.051 13.7707 147.051 14.4V20H145.243V14.896C145.243 14.4587 145.163 14.0907 145.003 13.792C144.853 13.4827 144.64 13.248 144.363 13.088C144.096 12.9173 143.781 12.832 143.419 12.832C143.056 12.832 142.736 12.9173 142.459 13.088C142.181 13.248 141.963 13.4827 141.803 13.792C141.643 14.1013 141.563 14.4693 141.563 14.896V20H139.771V14.896C139.771 14.4587 139.691 14.0907 139.531 13.792C139.381 13.4827 139.168 13.248 138.891 13.088C138.624 12.9173 138.304 12.832 137.931 12.832C137.568 12.832 137.248 12.9173 136.971 13.088C136.693 13.248 136.475 13.4827 136.315 13.792C136.165 14.1013 136.091 14.4693 136.091 14.896V20H134.283Z" fill="white"/>
</g>
<defs>
<radialGradient id="paint0_radial_91_7396" cx="0" cy="0" r="1" gradientUnits="userSpaceOnUse" gradientTransform="translate(164 60.5331) rotate(180) scale(180.622 1.4193e+06)">
<stop stop-color="#D9DFE6"/>
<stop offset="1" stop-color="#F7FAFC"/>
</radialGradient>
<clipPath id="clip0_91_7396">
<rect width="327" height="60" fill="white"/>
</clipPath>
<clipPath id="clip1_91_7396">
<rect width="375" height="24" fill="white" transform="translate(-24 36)"/>
</clipPath>
</defs>
</svg>
