<svg width="24" height="24" viewBox="0 0 24 24" fill="none" xmlns="http://www.w3.org/2000/svg">
<path d="M8.33333 22V16.8718L7 15.8462V11.7436C7 11.4716 7.14048 11.2107 7.39052 11.0184C7.64057 10.826 7.97971 10.7179 8.33333 10.7179H15.6667C16.0203 10.7179 16.3594 10.826 16.6095 11.0184C16.8595 11.2107 17 11.4716 17 11.7436V15.8462L15.6667 16.8718V22M14.5 4.5641C14.5 5.69699 13.4728 7.12821 12 7.12821C10.5272 7.12821 9.5 5.69699 9.5 4.5641C9.5 3.43121 10.5272 2 12 2C13.4728 2 14.5 3.43121 14.5 4.5641Z" stroke="#A0AEC0" stroke-width="1.5" stroke-linecap="round" stroke-linejoin="round"/>
</svg>
