<svg width="375" height="60" viewBox="0 0 375 60" fill="none" xmlns="http://www.w3.org/2000/svg">
<g clip-path="url(#clip0_91_7379)">
<mask id="path-1-inside-1_91_7379" fill="white">
<path fill-rule="evenodd" clip-rule="evenodd" d="M126.273 43.6365C131.296 48.9287 137.322 54.359 144.619 54.359H382.615C384.485 54.359 386 55.8743 386 57.7436C386 59.6129 384.485 61.1282 382.615 61.1282H148.594C139.915 61.1282 133.162 68.7288 127.819 75.5691C123.335 81.3095 116.349 85 108.5 85C100.651 85 93.6648 81.3095 89.1809 75.5691C83.8379 68.7288 77.0853 61.1282 68.4055 61.1282H-6.61538C-8.48465 61.1282 -10 59.6129 -10 57.7436C-10 55.8743 -8.48466 54.359 -6.61539 54.359H72.3813C79.6778 54.359 85.7041 48.9287 90.7271 43.6365C95.1915 38.933 101.503 36 108.5 36C115.497 36 121.809 38.933 126.273 43.6365Z"/>
</mask>
<path d="M126.273 43.6365L125.455 44.4131L126.273 43.6365ZM144.619 55.4872H382.615V53.2308H144.619V55.4872ZM382.615 60H148.594V62.2564H382.615V60ZM126.93 74.8746C122.651 80.353 115.987 83.8718 108.5 83.8718V86.1282C116.711 86.1282 124.02 82.2659 128.708 76.2636L126.93 74.8746ZM108.5 83.8718C101.013 83.8718 94.3493 80.353 90.07 74.8746L88.2918 76.2636C92.9803 82.2659 100.289 86.1282 108.5 86.1282V83.8718ZM68.4055 60H-6.61538V62.2564H68.4055V60ZM-6.61539 55.4872H72.3813V53.2308H-6.61539V55.4872ZM91.5454 44.4132C95.8056 39.9247 101.825 37.1282 108.5 37.1282V34.8718C101.181 34.8718 94.5773 37.9412 89.9089 42.8598L91.5454 44.4132ZM108.5 37.1282C115.175 37.1282 121.194 39.9247 125.455 44.4131L127.091 42.8598C122.423 37.9412 115.819 34.8718 108.5 34.8718V37.1282ZM72.3813 55.4872C80.2184 55.4872 86.5528 49.6733 91.5454 44.4132L89.9089 42.8598C84.8553 48.1841 79.1373 53.2308 72.3813 53.2308V55.4872ZM-8.87179 57.7436C-8.87179 56.4974 -7.86157 55.4872 -6.61539 55.4872V53.2308C-9.10775 53.2308 -11.1282 55.2512 -11.1282 57.7436H-8.87179ZM-6.61538 60C-7.86156 60 -8.87179 58.9898 -8.87179 57.7436H-11.1282C-11.1282 60.236 -9.10774 62.2564 -6.61538 62.2564V60ZM148.594 60C143.907 60 139.807 62.0553 136.25 64.9028C132.7 67.7455 129.609 71.445 126.93 74.8746L128.708 76.2636C131.372 72.8528 134.329 69.3319 137.661 66.6642C140.986 64.0014 144.602 62.2564 148.594 62.2564V60ZM384.872 57.7436C384.872 58.9898 383.862 60 382.615 60V62.2564C385.108 62.2564 387.128 60.236 387.128 57.7436H384.872ZM382.615 55.4872C383.862 55.4872 384.872 56.4974 384.872 57.7436H387.128C387.128 55.2512 385.108 53.2308 382.615 53.2308V55.4872ZM90.07 74.8746C87.3912 71.445 84.2999 67.7455 80.7496 64.9029C77.1933 62.0554 73.0926 60 68.4055 60V62.2564C72.3982 62.2564 76.0136 64.0014 79.3393 66.6642C82.6711 69.3319 85.6276 72.8528 88.2918 76.2636L90.07 74.8746ZM144.619 53.2308C137.863 53.2308 132.145 48.1841 127.091 42.8598L125.455 44.4131C130.447 49.6733 136.782 55.4872 144.619 55.4872V53.2308Z" fill="url(#paint0_radial_91_7379)" mask="url(#path-1-inside-1_91_7379)"/>
<circle cx="108.5" cy="51.5" r="5.5" fill="#606873"/>
</g>
<path d="M338 46L337 42L335 39V33M335 33L331 36L332 39M335 33L338 35L341 35.5M334 42L332 46M343 46V37.5C343 37.1022 343.158 36.7206 343.439 36.4393C343.721 36.158 344.102 36 344.5 36C344.898 36 345.279 36.158 345.561 36.4393C345.842 36.7206 346 37.1022 346 37.5V38M336 29C336 29.5523 335.552 30 335 30C334.448 30 334 29.5523 334 29C334 28.4477 334.448 28 335 28C335.552 28 336 28.4477 336 29Z" stroke="#A0AEC0" stroke-width="1.5" stroke-linecap="round" stroke-linejoin="round"/>
<path d="M34.6667 47V43.5789L34 42.8947V40.1579C34 39.9764 34.0702 39.8024 34.1953 39.6741C34.3203 39.5458 34.4899 39.4737 34.6667 39.4737H37.3333C37.5101 39.4737 37.6797 39.5458 37.8047 39.6741C37.9298 39.8024 38 39.9764 38 40.1579V42.8947L37.3333 43.5789V47M37.3333 35.3684C37.3333 36.1242 36.7364 36.7368 36 36.7368C35.2636 36.7368 34.6667 36.1242 34.6667 35.3684C34.6667 34.6127 35.2636 34 36 34C36.7364 34 37.3333 34.6127 37.3333 35.3684Z" stroke="#A0AEC0" stroke-width="1.3" stroke-linecap="round" stroke-linejoin="round"/>
<rect x="89" width="40" height="26" rx="8" fill="#606873"/>
<path d="M100.214 20V18.64L103.478 15.152C104.118 14.4693 104.619 13.92 104.982 13.504C105.355 13.0773 105.622 12.704 105.782 12.384C105.953 12.064 106.038 11.728 106.038 11.376C106.038 10.8 105.862 10.3573 105.51 10.048C105.158 9.728 104.705 9.568 104.15 9.568C103.574 9.568 103.078 9.73333 102.662 10.064C102.246 10.384 101.958 10.8533 101.798 11.472L100.134 10.992C100.262 10.3627 100.518 9.81867 100.902 9.36C101.286 8.89067 101.755 8.528 102.31 8.272C102.875 8.016 103.483 7.888 104.134 7.888C104.891 7.888 105.553 8.032 106.118 8.32C106.683 8.59733 107.121 8.98667 107.43 9.488C107.75 9.98933 107.91 10.5707 107.91 11.232C107.91 11.6693 107.825 12.096 107.654 12.512C107.494 12.9173 107.243 13.3493 106.902 13.808C106.561 14.256 106.123 14.7627 105.59 15.328L102.71 18.4H108.134V20H100.214ZM113.793 20.192C113.014 20.192 112.321 20.0213 111.713 19.68C111.105 19.3387 110.625 18.8693 110.273 18.272C109.931 17.6747 109.761 16.9973 109.761 16.24C109.761 15.8453 109.803 15.4507 109.889 15.056C109.974 14.6613 110.123 14.2507 110.337 13.824C110.561 13.3973 110.859 12.9387 111.233 12.448L114.561 8.08H116.817L112.737 13.36L112.417 13.152C112.566 12.9813 112.726 12.848 112.897 12.752C113.078 12.656 113.265 12.5867 113.457 12.544C113.659 12.5013 113.873 12.48 114.097 12.48C114.811 12.48 115.451 12.6453 116.017 12.976C116.582 13.3067 117.025 13.7547 117.345 14.32C117.675 14.8853 117.841 15.536 117.841 16.272C117.841 17.0187 117.665 17.6907 117.313 18.288C116.961 18.8747 116.481 19.3387 115.873 19.68C115.275 20.0213 114.582 20.192 113.793 20.192ZM113.793 18.512C114.209 18.512 114.577 18.416 114.897 18.224C115.217 18.032 115.473 17.7707 115.665 17.44C115.857 17.0987 115.953 16.7147 115.953 16.288C115.953 15.8507 115.857 15.4667 115.665 15.136C115.483 14.8053 115.227 14.5493 114.897 14.368C114.577 14.176 114.209 14.08 113.793 14.08C113.387 14.08 113.019 14.176 112.689 14.368C112.369 14.5493 112.113 14.8053 111.921 15.136C111.729 15.4667 111.633 15.8507 111.633 16.288C111.633 16.7147 111.729 17.0987 111.921 17.44C112.113 17.7707 112.369 18.032 112.689 18.224C113.019 18.416 113.387 18.512 113.793 18.512Z" fill="white"/>
<defs>
<radialGradient id="paint0_radial_91_7379" cx="0" cy="0" r="1" gradientUnits="userSpaceOnUse" gradientTransform="translate(188 60.5331) rotate(180) scale(180.622 1.4193e+06)">
<stop stop-color="#D9DFE6"/>
<stop offset="1" stop-color="#F7FAFC"/>
</radialGradient>
<clipPath id="clip0_91_7379">
<rect width="375" height="24" fill="white" transform="translate(0 36)"/>
</clipPath>
</defs>
</svg>
