<svg width="24" height="24" viewBox="0 0 24 24" fill="none" xmlns="http://www.w3.org/2000/svg">
<path d="M10.6667 22V18.5789L10 17.8947V15.1579C10 14.9764 10.0702 14.8024 10.1953 14.6741C10.3203 14.5458 10.4899 14.4737 10.6667 14.4737H13.3333C13.5101 14.4737 13.6797 14.5458 13.8047 14.6741C13.9298 14.8024 14 14.9764 14 15.1579V17.8947L13.3333 18.5789V22M13.3333 10.3684C13.3333 11.1242 12.7364 11.7368 12 11.7368C11.2636 11.7368 10.6667 11.1242 10.6667 10.3684C10.6667 9.61266 11.2636 9 12 9C12.7364 9 13.3333 9.61266 13.3333 10.3684Z" stroke="#A0AEC0" stroke-width="1.5" stroke-linecap="round" stroke-linejoin="round"/>
</svg>
