<svg width="26" height="25" viewBox="0 0 26 25" fill="none" xmlns="http://www.w3.org/2000/svg">
<path d="M10.6667 22.9167V17.7083L9.625 16.6667V12.5C9.625 12.2237 9.73475 11.9588 9.9301 11.7634C10.1254 11.5681 10.3904 11.4583 10.6667 11.4583H14.8333C15.1096 11.4583 15.3746 11.5681 15.5699 11.7634C15.7653 11.9588 15.875 12.2237 15.875 12.5V16.6667L14.8333 17.7083V22.9167M14.8333 5.20833C14.8333 6.35893 13.9006 7.29167 12.75 7.29167C11.5994 7.29167 10.6667 6.35893 10.6667 5.20833C10.6667 4.05774 11.5994 3.125 12.75 3.125C13.9006 3.125 14.8333 4.05774 14.8333 5.20833Z" stroke="white" stroke-width="1.5" stroke-linecap="round" stroke-linejoin="round"/>
</svg>
