<svg width="327" height="60" viewBox="0 0 327 60" fill="none" xmlns="http://www.w3.org/2000/svg">
<g clip-path="url(#clip0_91_7413)">
<g clip-path="url(#clip1_91_7413)">
<mask id="path-1-inside-1_91_7413" fill="white">
<path fill-rule="evenodd" clip-rule="evenodd" d="M192.273 43.6365C197.296 48.9287 203.322 54.359 210.619 54.359H358.615C360.485 54.359 362 55.8743 362 57.7436C362 59.6129 360.485 61.1282 358.615 61.1282H214.594C205.915 61.1282 199.162 68.7288 193.819 75.5691C189.335 81.3095 182.349 85 174.5 85C166.651 85 159.665 81.3095 155.181 75.5691C149.838 68.7288 143.085 61.1282 134.406 61.1282H-30.6154C-32.4847 61.1282 -34 59.6129 -34 57.7436C-34 55.8743 -32.4847 54.359 -30.6154 54.359H138.381C145.678 54.359 151.704 48.9287 156.727 43.6365C161.191 38.933 167.503 36 174.5 36C181.497 36 187.809 38.933 192.273 43.6365Z"/>
</mask>
<path d="M156.727 43.6365L155.909 42.8598L156.727 43.6365ZM155.181 75.5691L154.292 76.2636L155.181 75.5691ZM192.273 43.6365L191.455 44.4131L192.273 43.6365ZM210.619 55.4872H358.615V53.2308H210.619V55.4872ZM358.615 60H214.594V62.2564H358.615V60ZM192.93 74.8746C188.651 80.353 181.987 83.8718 174.5 83.8718V86.1282C182.711 86.1282 190.02 82.2659 194.708 76.2636L192.93 74.8746ZM174.5 83.8718C167.013 83.8718 160.349 80.353 156.07 74.8746L154.292 76.2636C158.98 82.2659 166.289 86.1282 174.5 86.1282V83.8718ZM134.406 60H-30.6154V62.2564H134.406V60ZM-30.6154 55.4872H138.381V53.2308H-30.6154V55.4872ZM157.545 44.4132C161.806 39.9247 167.825 37.1282 174.5 37.1282V34.8718C167.181 34.8718 160.577 37.9412 155.909 42.8598L157.545 44.4132ZM174.5 37.1282C181.175 37.1282 187.194 39.9247 191.455 44.4131L193.091 42.8598C188.423 37.9412 181.819 34.8718 174.5 34.8718V37.1282ZM138.381 55.4872C146.218 55.4872 152.553 49.6733 157.545 44.4132L155.909 42.8598C150.855 48.1841 145.137 53.2308 138.381 53.2308V55.4872ZM-32.8718 57.7436C-32.8718 56.4974 -31.8616 55.4872 -30.6154 55.4872V53.2308C-33.1077 53.2308 -35.1282 55.2512 -35.1282 57.7436H-32.8718ZM-30.6154 60C-31.8616 60 -32.8718 58.9898 -32.8718 57.7436H-35.1282C-35.1282 60.236 -33.1077 62.2564 -30.6154 62.2564V60ZM214.594 60C209.907 60 205.807 62.0553 202.25 64.9028C198.7 67.7455 195.609 71.445 192.93 74.8746L194.708 76.2636C197.372 72.8528 200.329 69.3319 203.661 66.6642C206.986 64.0014 210.602 62.2564 214.594 62.2564V60ZM360.872 57.7436C360.872 58.9898 359.862 60 358.615 60V62.2564C361.108 62.2564 363.128 60.236 363.128 57.7436H360.872ZM358.615 55.4872C359.862 55.4872 360.872 56.4974 360.872 57.7436H363.128C363.128 55.2512 361.108 53.2308 358.615 53.2308V55.4872ZM156.07 74.8746C153.391 71.445 150.3 67.7455 146.75 64.9028C143.193 62.0553 139.093 60 134.406 60V62.2564C138.398 62.2564 142.014 64.0014 145.339 66.6642C148.671 69.3319 151.628 72.8528 154.292 76.2636L156.07 74.8746ZM210.619 53.2308C203.863 53.2308 198.145 48.1841 193.091 42.8598L191.455 44.4131C196.447 49.6733 202.782 55.4872 210.619 55.4872V53.2308Z" fill="url(#paint0_radial_91_7413)" mask="url(#path-1-inside-1_91_7413)"/>
<circle cx="174.5" cy="51.5" r="5.5" fill="#606873"/>
</g>
<path d="M311.333 47V41.8718L310 40.8462V36.7436C310 36.4716 310.14 36.2107 310.391 36.0184C310.641 35.826 310.98 35.7179 311.333 35.7179H318.667C319.02 35.7179 319.359 35.826 319.609 36.0184C319.86 36.2107 320 36.4716 320 36.7436V40.8462L318.667 41.8718V47M317.5 29.5641C317.5 30.697 316.473 32.1282 315 32.1282C313.527 32.1282 312.5 30.697 312.5 29.5641C312.5 28.4312 313.527 27 315 27C316.473 27 317.5 28.4312 317.5 29.5641Z" stroke="#A0AEC0" stroke-width="1.5" stroke-linecap="round" stroke-linejoin="round"/>
<path d="M10.6667 47V41.5946L10 40.5135V36.1892C10 35.9025 10.0702 35.6275 10.1953 35.4247C10.3203 35.222 10.4899 35.1081 10.6667 35.1081H13.3333C13.5101 35.1081 13.6797 35.222 13.8047 35.4247C13.9298 35.6275 14 35.9025 14 36.1892V40.5135L13.3333 41.5946V47M13.3333 28.6216C13.3333 29.8158 12.7364 30.2432 12 30.2432C11.2636 30.2432 10.6667 29.8158 10.6667 28.6216C10.6667 27.4275 11.2636 27 12 27C12.7364 27 13.3333 27.4275 13.3333 28.6216Z" stroke="#A0AEC0" stroke-width="1.5" stroke-linecap="round" stroke-linejoin="round"/>
<rect x="144" width="62" height="26" rx="8" fill="#606873"/>
<path d="M159.11 20.192C158.278 20.192 157.548 20.032 156.918 19.712C156.3 19.3813 155.82 18.944 155.478 18.4C155.137 17.8453 154.966 17.232 154.966 16.56C154.966 15.792 155.174 15.1307 155.59 14.576C156.017 14.0107 156.614 13.6 157.382 13.344L157.302 13.824C156.737 13.6107 156.289 13.2533 155.958 12.752C155.638 12.24 155.478 11.68 155.478 11.072C155.478 10.464 155.633 9.92 155.942 9.44C156.262 8.96 156.694 8.58133 157.238 8.304C157.793 8.02667 158.417 7.888 159.11 7.888C159.814 7.888 160.438 8.02667 160.982 8.304C161.526 8.57067 161.953 8.944 162.262 9.424C162.582 9.904 162.742 10.4533 162.742 11.072C162.742 11.7013 162.577 12.2667 162.246 12.768C161.926 13.2587 161.489 13.6107 160.934 13.824L160.854 13.344C161.622 13.6107 162.22 14.0213 162.646 14.576C163.073 15.1307 163.286 15.792 163.286 16.56C163.286 17.232 163.11 17.8453 162.758 18.4C162.417 18.944 161.932 19.3813 161.302 19.712C160.673 20.032 159.942 20.192 159.11 20.192ZM159.11 18.592C159.569 18.592 159.969 18.5067 160.31 18.336C160.652 18.1547 160.918 17.9093 161.11 17.6C161.302 17.2907 161.398 16.928 161.398 16.512C161.398 16.096 161.302 15.7333 161.11 15.424C160.918 15.1147 160.652 14.8747 160.31 14.704C159.969 14.5333 159.569 14.448 159.11 14.448C158.662 14.448 158.268 14.5333 157.926 14.704C157.585 14.8747 157.318 15.1147 157.126 15.424C156.934 15.7333 156.838 16.096 156.838 16.512C156.838 16.928 156.934 17.2907 157.126 17.6C157.318 17.9093 157.585 18.1547 157.926 18.336C158.268 18.5067 158.662 18.592 159.11 18.592ZM159.11 12.848C159.452 12.848 159.75 12.7787 160.006 12.64C160.273 12.4907 160.481 12.288 160.63 12.032C160.78 11.776 160.854 11.488 160.854 11.168C160.854 10.8373 160.78 10.5493 160.63 10.304C160.481 10.048 160.273 9.85067 160.006 9.712C159.75 9.56267 159.452 9.488 159.11 9.488C158.78 9.488 158.481 9.56267 158.214 9.712C157.948 9.85067 157.74 10.048 157.59 10.304C157.441 10.5493 157.366 10.8373 157.366 11.168C157.366 11.488 157.441 11.776 157.59 12.032C157.74 12.288 157.948 12.4907 158.214 12.64C158.481 12.7787 158.78 12.848 159.11 12.848ZM164.964 20V18.64L168.228 15.152C168.868 14.4693 169.369 13.92 169.732 13.504C170.105 13.0773 170.372 12.704 170.532 12.384C170.703 12.064 170.788 11.728 170.788 11.376C170.788 10.8 170.612 10.3573 170.26 10.048C169.908 9.728 169.455 9.568 168.9 9.568C168.324 9.568 167.828 9.73333 167.412 10.064C166.996 10.384 166.708 10.8533 166.548 11.472L164.884 10.992C165.012 10.3627 165.268 9.81867 165.652 9.36C166.036 8.89067 166.505 8.528 167.06 8.272C167.625 8.016 168.233 7.888 168.884 7.888C169.641 7.888 170.303 8.032 170.868 8.32C171.433 8.59733 171.871 8.98667 172.18 9.488C172.5 9.98933 172.66 10.5707 172.66 11.232C172.66 11.6693 172.575 12.096 172.404 12.512C172.244 12.9173 171.993 13.3493 171.652 13.808C171.311 14.256 170.873 14.7627 170.34 15.328L167.46 18.4H172.884V20H164.964ZM177.579 20V7.888H179.387V16L178.683 15.824L183.019 11.344H185.275L182.011 14.816L185.419 20H183.339L180.299 15.408L181.371 15.264L178.811 17.984L179.387 16.784V20H177.579ZM190.677 23.52C190.048 23.52 189.467 23.4187 188.933 23.216C188.4 23.0133 187.941 22.7307 187.557 22.368C187.173 22.016 186.885 21.6 186.693 21.12L188.357 20.432C188.507 20.8373 188.779 21.1733 189.173 21.44C189.579 21.7067 190.075 21.84 190.661 21.84C191.12 21.84 191.531 21.7493 191.893 21.568C192.256 21.3973 192.544 21.1413 192.757 20.8C192.971 20.4693 193.077 20.0693 193.077 19.6V17.648L193.397 18.016C193.099 18.5707 192.683 18.992 192.149 19.28C191.627 19.568 191.035 19.712 190.373 19.712C189.573 19.712 188.853 19.5253 188.213 19.152C187.573 18.7787 187.067 18.2667 186.693 17.616C186.331 16.9653 186.149 16.2347 186.149 15.424C186.149 14.6027 186.331 13.872 186.693 13.232C187.067 12.592 187.568 12.0853 188.197 11.712C188.827 11.3387 189.547 11.152 190.357 11.152C191.019 11.152 191.605 11.296 192.117 11.584C192.64 11.8613 193.067 12.2667 193.397 12.8L193.157 13.248V11.344H194.869V19.6C194.869 20.3467 194.688 21.0133 194.325 21.6C193.973 22.1973 193.483 22.6667 192.853 23.008C192.224 23.3493 191.499 23.52 190.677 23.52ZM190.581 18.032C191.061 18.032 191.488 17.92 191.861 17.696C192.235 17.4613 192.528 17.152 192.741 16.768C192.965 16.3733 193.077 15.9307 193.077 15.44C193.077 14.9493 192.965 14.5067 192.741 14.112C192.517 13.7173 192.219 13.408 191.845 13.184C191.472 12.9493 191.051 12.832 190.581 12.832C190.091 12.832 189.653 12.9493 189.269 13.184C188.885 13.408 188.581 13.7173 188.357 14.112C188.144 14.496 188.037 14.9387 188.037 15.44C188.037 15.92 188.144 16.3573 188.357 16.752C188.581 17.1467 188.885 17.4613 189.269 17.696C189.653 17.92 190.091 18.032 190.581 18.032Z" fill="white"/>
</g>
<defs>
<radialGradient id="paint0_radial_91_7413" cx="0" cy="0" r="1" gradientUnits="userSpaceOnUse" gradientTransform="translate(164 60.5331) rotate(180) scale(180.622 1.4193e+06)">
<stop stop-color="#D9DFE6"/>
<stop offset="1" stop-color="#F7FAFC"/>
</radialGradient>
<clipPath id="clip0_91_7413">
<rect width="327" height="60" fill="white"/>
</clipPath>
<clipPath id="clip1_91_7413">
<rect width="375" height="24" fill="white" transform="translate(-24 36)"/>
</clipPath>
</defs>
</svg>
