<svg width="36" height="35" viewBox="0 0 36 35" fill="none" xmlns="http://www.w3.org/2000/svg">
<path d="M15.8056 32.0833V27.0943L14.8333 26.0965V22.1053C14.8333 21.8406 14.9358 21.5868 15.1181 21.3997C15.3004 21.2126 15.5477 21.1075 15.8056 21.1075H19.6945C19.9523 21.1075 20.1996 21.2126 20.3819 21.3997C20.5642 21.5868 20.6667 21.8406 20.6667 22.1053V26.0965L19.6945 27.0943V32.0833M19.6945 15.1206C19.6945 16.2228 18.8239 17.1162 17.75 17.1162C16.6761 17.1162 15.8056 16.2228 15.8056 15.1206C15.8056 14.0185 16.6761 13.125 17.75 13.125C18.8239 13.125 19.6945 14.0185 19.6945 15.1206Z" stroke="#808B9A" stroke-width="1.3" stroke-linecap="round" stroke-linejoin="round"/>
</svg>
