<svg width="26" height="25" viewBox="0 0 26 25" fill="none" xmlns="http://www.w3.org/2000/svg">
<path d="M11.1666 22.9167V18.75H9.08331L11.1666 12.5C11.1666 12.2237 11.2764 11.9588 11.4717 11.7634C11.6671 11.5681 11.932 11.4583 12.2083 11.4583H14.2916C14.5679 11.4583 14.8329 11.5681 15.0282 11.7634C15.2236 11.9588 15.3333 12.2237 15.3333 12.5L17.4166 18.75H15.3333V22.9167M15.3333 5.20833C15.3333 6.35893 14.4006 7.29167 13.25 7.29167C12.0994 7.29167 11.1666 6.35893 11.1666 5.20833C11.1666 4.05774 12.0994 3.125 13.25 3.125C14.4006 3.125 15.3333 4.05774 15.3333 5.20833Z" stroke="#808B9A" stroke-width="1.5" stroke-linecap="round" stroke-linejoin="round"/>
</svg>
